<svg id="Capa_1" enable-background="new 0 0 512 512" height="512" viewBox="0 0 512 512" width="512" xmlns="http://www.w3.org/2000/svg"><g><path d="m127.885 437-41.836-84.229 169.951-233.789 169.952 233.789-41.836 84.229z" fill="#c1f261"/><path d="m384.116 437 41.836-84.229-169.952-233.789v318.018z" fill="#a0e65c"/><g id="Gem_7_"><g><path d="m512 345.5-81.7 166.5-66.549-29.225 1.75-75.775 25.499-51.301 48.451-34.037z" fill="#59b348"/><path d="m256 0 30 92-30 77.999-135 185.7-48.45 25.963-72.55-36.162z" fill="#a0e65c"/></g></g><path d="m430.3 512h-348.299l2.249-82.5 62.25-22.5h219.001z" fill="#a0e65c"/><g fill="#79cc52"><path d="m512 345.5-121 10.199-135-185.7v-169.999z"/><path d="m146.5 407-64.499 105h-.301l-81.7-166.5 121 10.199z"/><path d="m256 512h174.3l-64.799-105h-109.501z"/></g></g></svg>